HIERARCHY
ROOT Hips
{
	OFFSET 51.775002 4.849502 54.065201
	CHANNELS 6 Xposition Yposition Zposition Xrotation Yrotation Zrotation
	JOINT spine
	{
		OFFSET 0.000000 -0.458068 7.965679
		CHANNELS 3 Xrotation Yrotation Zrotation
		JOINT spine1
		{
			OFFSET 0.000000 -0.000002 10.243099
			CHANNELS 3 Xrotation Yrotation Zrotation
			JOINT spine2
			{
				OFFSET 0.000000 -0.000001 9.814751
				CHANNELS 3 Xrotation Yrotation Zrotation
				JOINT Neck
				{
					OFFSET 0.000000 -1.201384 25.198601
					CHANNELS 3 Xrotation Yrotation Zrotation
					JOINT Head
					{
						OFFSET 0.000000 -0.000001 7.613152
						CHANNELS 3 Xrotation Yrotation Zrotation
						End Site
						{
							OFFSET 0.000000 6.077327 18.428101
						}
					}
				}
				JOINT RightShoulder
				{
					OFFSET -4.132698 0.575449 10.599197
					CHANNELS 3 Xrotation Yrotation Zrotation
					JOINT RightArm
					{
						OFFSET 0.000000 -0.000002 13.901802
						CHANNELS 3 Xrotation Yrotation Zrotation
						JOINT RightArmRoll
						{
							OFFSET 0.000000 -0.000001 7.017891
							CHANNELS 3 Xrotation Yrotation Zrotation
							JOINT RightForeArm
							{
								OFFSET 0.000000 -0.000003 20.440598
								CHANNELS 3 Xrotation Yrotation Zrotation
								JOINT RightForeArmRoll
								{
									OFFSET 0.000000 -0.000001 7.875153
									CHANNELS 3 Xrotation Yrotation Zrotation
									JOINT RightHand
									{
										OFFSET 0.000000 -0.000003 15.803696
										CHANNELS 3 Xrotation Yrotation Zrotation
										End Site
										{
											OFFSET 0.000000 0.000000 0.100006
										}
									}
								}
							}
						}
					}
				}
				JOINT LeftShoulder
				{
					OFFSET 4.132698 0.575449 10.599197
					CHANNELS 3 Xrotation Yrotation Zrotation
					JOINT LeftArm
					{
						OFFSET 0.000000 -0.000002 13.901802
						CHANNELS 3 Xrotation Yrotation Zrotation
						JOINT LeftArmRoll
						{
							OFFSET 0.000000 -0.000001 7.017891
							CHANNELS 3 Xrotation Yrotation Zrotation
							JOINT LeftForeArm
							{
								OFFSET 0.000000 -0.000003 20.440598
								CHANNELS 3 Xrotation Yrotation Zrotation
								JOINT LeftForeArmRoll
								{
									OFFSET 0.000000 -0.000001 7.875153
									CHANNELS 3 Xrotation Yrotation Zrotation
									JOINT LeftHand
									{
										OFFSET 0.000000 -0.000003 15.803696
										CHANNELS 3 Xrotation Yrotation Zrotation
										End Site
										{
											OFFSET 0.000000 0.000000 0.100006
										}
									}
								}
							}
						}
					}
				}
			}
		}
	}
	JOINT RightUpLeg
	{
		OFFSET -7.060478 1.086100 -1.294701
		CHANNELS 3 Xrotation Yrotation Zrotation
		JOINT RightUpLegRoll
		{
			OFFSET 0.000000 -0.000003 18.530800
			CHANNELS 3 Xrotation Yrotation Zrotation
			JOINT RightLeg
			{
				OFFSET 0.000000 0.000003 -22.947601
				CHANNELS 3 Xrotation Yrotation Zrotation
				JOINT RightLegRoll
				{
					OFFSET 0.000000 -0.000003 23.022598
					CHANNELS 3 Xrotation Yrotation Zrotation
					JOINT RightFoot
					{
						OFFSET 0.000000 -0.000003 19.162498
						CHANNELS 3 Xrotation Yrotation Zrotation
						JOINT RightToeBase
						{
							OFFSET 0.000000 -0.000002 16.018799
							CHANNELS 3 Xrotation Yrotation Zrotation
							End Site
							{
								OFFSET 0.006790 0.894205 7.757828
							}
						}
					}
				}
			}
		}
	}
	JOINT LeftUpLeg
	{
		OFFSET 7.060478 1.086100 -1.294701
		CHANNELS 3 Xrotation Yrotation Zrotation
		JOINT LeftUpLegRoll
		{
			OFFSET 0.000000 -0.000003 18.530899
			CHANNELS 3 Xrotation Yrotation Zrotation
			JOINT LeftLeg
			{
				OFFSET 0.000000 -0.000004 22.947502
				CHANNELS 3 Xrotation Yrotation Zrotation
				JOINT LeftLegRoll
				{
					OFFSET 0.000000 -0.000004 23.235504
					CHANNELS 3 Xrotation Yrotation Zrotation
					JOINT LeftFoot
					{
						OFFSET 0.000000 -0.000003 18.949600
						CHANNELS 3 Xrotation Yrotation Zrotation
						JOINT LeftToeBase
						{
							OFFSET 0.000000 -0.000002 16.018799
							CHANNELS 3 Xrotation Yrotation Zrotation
							End Site
							{
								OFFSET -0.030430 0.894206 7.757812
							}
						}
					}
				}
			}
		}
	}
}
MOTION
Frames: 6
Frame Time: 0.041667
52.126404 2.376472 55.202702 2.859791 -0.662062 5.220530 4.140739 -0.793762 -0.680718 12.276305 -1.639280 -1.293173 13.921521 -1.654654 -1.273449 9.881195 20.754650 -0.384995 29.905970 -14.325700 3.541258 1.498787 -49.101093 3.115091 -68.633292 -150.298736 -65.298569 -0.000001 0.000000 0.000001 55.221229 -2.329434 -1.247386 -0.000004 0.000005 -3.000001 -5.000180 -7.998741 0.000156 -23.994535 60.068488 28.334703 -57.814430 114.901527 104.093886 0.000001 0.000000 -0.000000 97.409344 -0.233633 11.492122 -0.000000 -0.000010 3.000000 -5.000168 7.998835 -0.000163 -92.371854 -169.644878 1.102455 -179.999991 0.000005 -1.161004 88.596733 2.317580 -0.387414 -0.000001 -0.000004 1.753260 65.567760 7.003979 2.090782 25.456909 -7.348411 -0.000005 -92.929218 175.357239 -1.916338 -0.000020 -0.000005 -1.259470 -90.748530 -2.373001 0.343498 -0.000005 -0.000001 -1.924890 62.881064 -7.186687 -1.836908 25.456851 7.348960 0.000007 
52.153305 2.360622 55.187801 2.731446 -0.647327 5.261632 4.131171 -0.795822 -0.685979 12.257119 -1.643718 -1.303634 13.902347 -1.659218 -1.283858 9.873785 20.695352 -0.391452 29.812280 -14.262400 3.499722 1.504869 -49.242126 3.101491 -68.605323 -150.191926 -65.270661 -0.000000 0.000000 0.000001 55.224378 -2.342152 -1.242752 -0.000004 0.000005 -3.000001 -5.000181 -7.998743 0.000154 -23.920757 60.043537 28.248885 -57.679418 115.027325 103.748962 -0.000001 -0.000000 0.000000 97.253213 -0.156837 11.343938 -0.000000 -0.000010 3.000001 -5.000171 7.998833 -0.000162 -92.269907 -169.623213 1.114961 -179.999991 0.000006 -1.161004 88.595661 2.313757 -0.389544 -0.000001 -0.000004 1.751039 65.576544 7.002168 2.094625 25.456912 -7.348411 -0.000005 -92.841122 175.350422 -1.920034 -0.000020 -0.000005 -1.260120 -90.750176 -2.368300 0.340488 -0.000005 -0.000001 -1.923210 62.872178 -7.185988 -1.838830 25.456854 7.348961 0.000007 
52.143303 2.401621 55.164200 2.601270 -0.632112 5.301036 4.122209 -0.798144 -0.691578 12.239045 -1.648688 -1.314749 13.884272 -1.664318 -1.294913 9.864113 20.641516 -0.393549 29.718747 -14.200079 3.462370 1.510825 -49.376363 3.088715 -68.573132 -150.092601 -65.235328 -0.000003 0.000001 0.000001 55.222093 -2.352705 -1.238828 -0.000007 0.000005 -3.000001 -5.000179 -7.998742 0.000154 -23.852745 60.023101 28.169652 -57.555825 115.151074 103.414439 0.000000 -0.000000 0.000002 97.103037 -0.081627 11.202066 -0.000000 -0.000013 3.000001 -5.000171 7.998834 -0.000160 -92.166402 -169.603296 1.126886 -179.999991 0.000005 -1.162002 88.596310 2.310172 -0.391493 -0.000001 -0.000004 1.748929 65.583709 7.000481 2.098100 25.456916 -7.348409 -0.000005 -92.751210 175.341652 -1.921976 -0.000020 -0.000005 -1.260820 -90.750299 -2.363937 0.339520 -0.000005 -0.000001 -1.921731 62.865273 -7.185341 -1.840831 25.456848 7.348957 0.000008 
52.131699 2.478282 55.136803 2.469382 -0.615997 5.339004 4.113773 -0.800761 -0.697581 12.221873 -1.654239 -1.326655 13.867109 -1.670015 -1.306746 9.853204 20.592102 -0.391297 29.623248 -14.137077 3.428612 1.518591 -49.504555 3.078955 -68.538988 -149.998563 -65.194866 -0.000002 0.000001 0.000000 55.215567 -2.361101 -1.235668 -0.000007 0.000005 -3.000000 -5.000179 -7.998744 0.000154 -23.788379 60.005623 28.094641 -57.440559 115.272611 103.086276 -0.000002 -0.000000 0.000001 96.958196 -0.008248 11.062509 0.000001 -0.000014 3.000001 -5.000172 7.998836 -0.000162 -92.061354 -169.585046 1.140418 -179.999991 0.000005 -1.162002 88.598666 2.306457 -0.393287 -0.000001 -0.000004 1.746900 65.589637 6.998858 2.101167 25.456911 -7.348411 -0.000005 -92.659787 175.330901 -1.922544 -0.000020 -0.000004 -1.261520 -90.749541 -2.359988 0.337560 -0.000005 -0.000001 -1.920471 62.860048 -7.184771 -1.842538 25.456853 7.348958 0.000008 
52.137100 2.494122 55.119400 2.335990 -0.599164 5.375601 4.105802 -0.803629 -0.703915 12.205602 -1.660284 -1.339179 13.850844 -1.676210 -1.319202 9.840983 20.546616 -0.385216 29.526290 -14.073239 3.397955 1.527555 -49.627451 3.071427 -68.502904 -149.909921 -65.149575 -0.000000 -0.000000 -0.000001 55.204833 -2.367627 -1.233177 -0.000006 0.000007 -3.000002 -5.000182 -7.998746 0.000154 -23.727515 59.990918 28.023544 -57.333851 115.392166 102.764936 -0.000001 -0.000001 0.000002 96.818109 0.063612 10.928203 -0.000000 -0.000011 3.000001 -5.000170 7.998833 -0.000161 -91.954980 -169.568325 1.153720 -179.999991 0.000005 -1.162002 88.602512 2.302710 -0.395118 -0.000001 -0.000004 1.744930 65.594323 6.997298 2.104030 25.456914 -7.348409 -0.000005 -92.567047 175.318225 -1.921545 -0.000020 -0.000004 -1.262240 -90.747881 -2.356220 0.336619 -0.000005 -0.000001 -1.919399 62.856182 -7.184207 -1.844360 25.456846 7.348960 0.000008 
52.137802 2.540691 55.101795 2.201304 -0.581792 5.410883 4.098268 -0.806709 -0.710498 12.190137 -1.666763 -1.352189 13.835386 -1.682837 -1.332131 9.827421 20.504267 -0.375757 29.428307 -14.008580 3.370011 1.537112 -49.745726 3.065273 -68.464785 -149.826593 -65.099435 0.000002 -0.000000 -0.000001 55.189885 -2.372549 -1.231247 -0.000006 0.000006 -3.000002 -5.000181 -7.998743 0.000153 -23.669553 59.979094 27.955749 -57.233813 115.510260 102.448555 -0.000001 0.000000 -0.000001 96.682373 0.133831 10.795182 -0.000000 -0.000013 3.000002 -5.000166 7.998835 -0.000163 -91.847500 -169.552930 1.167089 -179.999991 0.000005 -1.162002 88.607511 2.299080 -0.396853 -0.000001 -0.000004 1.743030 65.598182 6.995740 2.106744 25.456914 -7.348408 -0.000005 -92.473105 175.303704 -1.920069 -0.000020 -0.000005 -1.262970 -90.745524 -2.352765 0.335685 -0.000005 -0.000001 -1.918480 62.853545 -7.183636 -1.846197 25.456854 7.348955 0.000009 
